<svg xmlns="http://www.w3.org/2000/svg" version="1.1" xmlns:xlink="http://www.w3.org/1999/xlink" xmlns:svgjs="http://svgjs.dev/svgjs" width="2000" height="1252" viewBox="0 0 2000 1252"><g transform="matrix(1,0,0,1,-1.2121212121212466,-2.01935483870966)"><svg viewBox="0 0 396 248" data-background-color="#ffffff" preserveAspectRatio="xMidYMid meet" height="1252" width="2000" xmlns="http://www.w3.org/2000/svg" xmlns:xlink="http://www.w3.org/1999/xlink"><g id="tight-bounds" transform="matrix(1,0,0,1,0.2400000000000091,0.4000000000000057)"><svg viewBox="0 0 395.52 247.2" height="247.2" width="395.52"><g><svg></svg></g><g><svg viewBox="0 0 395.52 247.2" height="247.2" width="395.52"><g transform="matrix(1,0,0,1,136.66281338912134,47.215199999999996)"><svg viewBox="0 0 122.1943732217573 152.7696" height="152.7696" width="122.1943732217573"><g><svg viewBox="0 0 122.1943732217573 152.7696" height="152.7696" width="122.1943732217573"><g><svg viewBox="0 0 122.19437322175733 152.76960000000003" height="152.7696" width="122.1943732217573"><g><svg viewBox="0 0 122.19437322175733 152.76960000000003" height="152.76960000000003" width="122.19437322175733"><g id="textblocktransform"><svg viewBox="0 0 122.19437322175733 152.76960000000003" height="152.76960000000003" width="122.19437322175733" id="textblock"><g><svg viewBox="0 0 122.19437322175733 152.76960000000003" height="152.76960000000003" width="122.19437322175733"><g transform="matrix(1,0,0,1,0,0)"><svg width="122.19437322175733" viewBox="3.25 -35.01 28 35.01" height="152.76960000000003" data-palette-color="#471aa0"><path d="M31.25-35.01L31.25 0 23.75 0 10.25-23.05 10.25 0 3.25 0 3.25-35.01 10.74-35.01 24.24-11.94 24.24-35.01 31.25-35.01Z" opacity="1" transform="matrix(1,0,0,1,0,0)" fill="#471aa0" class="wordmark-text-0" data-fill-palette-color="primary" id="text-0"></path></svg></g></svg></g></svg></g></svg></g></svg></g></svg></g></svg></g><path d="M318.964 41.215L318.964 0 71.764 0 71.764 247.2 318.964 247.2 318.964 205.985 305.187 205.985 305.187 233.423 85.541 233.423 85.541 13.777 305.187 13.777 305.187 41.215Z" fill="#471aa0" stroke="transparent" data-fill-palette-color="tertiary"></path></svg></g><defs></defs></svg><rect width="395.52" height="247.2" fill="none" stroke="none" visibility="hidden"></rect></g></svg></g></svg>